#!OML:ASF F:\VICON\USERDATA\INSTALL\rory3\rory3.ASF
:FULLY-SPECIFIED
:DEGREES
247
root 8.6054 17.977 5.02692 -178.508 8.56924 180.386
lowerback 14.3847 2.97999 -0.661726
upperback 2.97156 4.14682 -1.11477
thorax -4.86316 2.19652 -1.56768
lowerneck -17.4987 15.6948 -5.05156
upperneck 44.6508 20.3645 3.88151
head 18.7851 6.23008 6.11083
rclavicle 3.44394e-014 -7.35503e-015
rhumerus -38.7662 -18.9206 -69.5871
rradius 33.9412
rwrist 6.6026
rhand -10.5951 7.90438
rfingers 7.12502
rthumb 15.4105 -21.5012
lclavicle 3.44394e-014 -7.35503e-015
lhumerus -24.2845 1.77305 82.8161
lradius 39.8101
lwrist -2.5719
lhand -18.5432 27.7366
lfingers 7.12502
lthumb 7.74606 57.5747
rfemur -27.2895 -2.7471 16.1643
rtibia 42.412
rfoot -12.3136 -1.17798
rtoes -1.92758
lfemur 0.56793 -8.99921 -28.682
ltibia 23.7337
lfoot -6.09701 -16.7474
ltoes 12.0022
248
root 8.54717 17.9794 5.11173 -178.691 9.39607 180.384
lowerback 14.2785 2.9905 -0.623207
upperback 3.00396 4.16635 -1.11199
thorax -4.76839 2.20578 -1.58126
lowerneck -17.3619 15.7322 -5.08295
upperneck 44.6866 20.3311 3.94727
head 18.7525 6.20604 6.11714
rclavicle -8.04581e-014 1.96797e-014
rhumerus -38.4008 -18.3966 -69.9382
rradius 34.1175
rwrist 6.73885
rhand -10.4299 7.91713
rfingers 7.12502
rthumb 15.5697 -21.4761
lclavicle -8.04581e-014 1.96797e-014
lhumerus -24.6219 2.10222 82.6696
lradius 39.6691
lwrist -2.872
lhand -19.0663 28.305
lfingers 7.12502
lthumb 7.24115 58.1611
rfemur -26.9189 -2.33446 15.9258
rtibia 43.8834
rfoot -12.8945 -1.54988
rtoes -2.01275
lfemur 0.400131 -8.63418 -28.8682
ltibia 23.7796
lfoot -6.02182 -16.4236
ltoes 11.9491
249
root 8.48808 17.9778 5.18723 -178.993 10.4187 180.371
lowerback 14.1775 3.05678 -0.60553
upperback 3.08655 4.26279 -1.10078
thorax -4.62416 2.25593 -1.58619
lowerneck -16.8059 8.2771 -2.93743
upperneck 43.579 24.4364 0.461395
head 19.2103 11.0729 6.23708
rclavicle -7.74763e-014 1.19271e-014
rhumerus -38.1745 -17.7284 -70.28
rradius 34.4596
rwrist 6.78985
rhand -10.3927 8.30655
rfingers 7.12502
rthumb 15.6055 -21.0839
lclavicle -7.74763e-014 1.19271e-014
lhumerus -25.0326 2.47582 82.5191
lradius 39.6029
lwrist -3.14645
lhand -19.5906 28.6883
lfingers 7.12502
lthumb 6.73502 58.5611
rfemur -26.3507 -1.87502 15.6642
rtibia 45.3062
rfoot -13.1232 -1.94655
rtoes -2.61467
lfemur 0.332798 -8.22814 -29.133
ltibia 23.9221
lfoot -5.89756 -15.8837
ltoes 11.9879
250
root 8.43216 17.9753 5.2629 -179.212 11.3824 180.433
lowerback 14.0267 3.13206 -0.525879
upperback 3.14093 4.3765 -1.07816
thorax -4.47879 2.31215 -1.61413
lowerneck -16.7724 8.26336 -3.0348
upperneck 43.6449 24.3012 0.589371
head 19.1973 11.0151 6.27478
rclavicle -2.78299e-014 1.43125e-014
rhumerus -38.0097 -17.2391 -70.5591
rradius 34.8185
rwrist 6.93592
rhand -10.3576 8.57872
rfingers 7.12502
rthumb 15.6392 -20.8091
lclavicle -2.78299e-014 1.43125e-014
lhumerus -25.3559 2.74622 82.3966
lradius 39.3457
lwrist -3.33227
lhand -20.1098 28.5006
lfingers 7.12502
lthumb 6.23384 58.3889
rfemur -25.826 -1.47562 15.5173
rtibia 46.7262
rfoot -12.8964 -2.67065
rtoes -2.10974
lfemur 0.146571 -7.77575 -29.2723
ltibia 24.0717
lfoot -5.75521 -15.4268
ltoes 11.887
251
root 8.37454 17.9784 5.34167 -179.363 12.1479 180.514
lowerback 13.9301 3.1481 -0.352731
upperback 3.12795 4.41724 -1.05445
thorax -4.42841 2.32792 -1.68667
lowerneck -16.7749 8.19316 -3.0486
upperneck 43.7766 24.1601 0.623918
head 19.2759 10.9496 6.2844
rclavicle -5.92378e-014 1.37161e-014
rhumerus -37.8648 -16.9719 -70.7072
rradius 35.077
rwrist 7.31686
rhand -10.1206 8.80445
rfingers 7.12502
rthumb 15.8675 -20.5654
lclavicle -5.92378e-014 1.37161e-014
lhumerus -25.8544 2.86522 82.326
lradius 39.238
lwrist -3.19712
lhand -20.4936 27.793
lfingers 7.12502
lthumb 5.86332 57.6919
rfemur -25.3459 -1.26012 15.4066
rtibia 48.1411
rfoot -12.7542 -3.11299
rtoes -1.1277
lfemur -0.120994 -7.37184 -29.3545
ltibia 24.2129
lfoot -5.629 -15.1022
ltoes 12.1855
252
root 8.31301 17.9825 5.41773 -179.569 12.9333 180.518
lowerback 13.92 3.15721 -0.206074
upperback 3.08917 4.44177 -1.07025
thorax -4.45118 2.33507 -1.79007
lowerneck -16.8509 8.12526 -3.07273
upperneck 43.9551 24.0092 0.719233
head 19.3873 10.8782 6.33355
rclavicle -2.33572e-015 -3.77691e-015
rhumerus -37.795 -16.4378 -70.9294
rradius 35.4497
rwrist 7.45098
rhand -9.97834 8.94799
rfingers 7.12502
rthumb 16.0045 -20.4109
lclavicle -2.33572e-015 -3.77691e-015
lhumerus -26.5973 3.02721 82.2546
lradius 39.3515
lwrist -2.83547
lhand -20.3427 26.3618
lfingers 7.12502
lthumb 6.009 56.2566
rfemur -24.8081 -1.18907 15.2037
rtibia 49.5642
rfoot -12.7312 -3.11747
rtoes 0.268065
lfemur -0.298497 -7.07123 -29.573
ltibia 24.3438
lfoot -5.4737 -14.5502
ltoes 12.7925
253
root 8.2518 17.9846 5.4882 -179.799 13.8394 180.525
lowerback 13.8612 3.21515 -0.0719738
upperback 3.05686 4.52934 -1.08774
thorax -4.43952 2.37372 -1.89524
lowerneck -16.8255 8.08649 -3.04426
upperneck 44.1005 23.8805 0.81514
head 19.4583 10.8354 6.36299
rclavicle 6.41081e-015 -8.94531e-015
rhumerus -37.7921 -16.006 -71.117
rradius 35.8488
rwrist 7.43539
rhand -9.97306 8.82834
rfingers 7.12502
rthumb 16.0096 -20.5302
lclavicle 6.41081e-015 -8.94531e-015
lhumerus -27.2377 3.23844 82.1199
lradius 39.3596
lwrist -2.73957
lhand -20.0418 25.8582
lfingers 7.12502
lthumb 6.29944 55.7446
rfemur -24.2091 -0.9993 15.0209
rtibia 50.9641
rfoot -12.5379 -3.23997
rtoes 1.59175
lfemur -0.404772 -6.66135 -29.8151
ltibia 24.4516
lfoot -5.3228 -13.8857
ltoes 12.9814
254
root 8.19126 17.9863 5.5547 -180.005 14.7256 180.61
lowerback 13.6818 3.2434 0.0958889
upperback 3.06207 4.58614 -1.05117
thorax -4.32506 2.39855 -1.94688
lowerneck -16.7306 8.07283 -3.02971
upperneck 44.2445 23.8113 0.908155
head 19.5072 10.8192 6.3943
rclavicle 9.49197e-015 3.77691e-015
rhumerus -37.666 -15.6008 -71.2685
rradius 36.0981
rwrist 7.35562
rhand -10.1151 8.77109
rfingers 7.12502
rthumb 15.8728 -20.5983
lclavicle 9.49197e-015 3.77691e-015
lhumerus -27.7901 3.83801 81.8871
lradius 39.2927
lwrist -3.45339
lhand -19.7693 26.3163
lfingers 7.12502
lthumb 6.56249 56.1946
rfemur -23.6115 -0.843623 14.9445
rtibia 52.3405
rfoot -12.3004 -3.38648
rtoes 1.86152
lfemur -0.501046 -6.22102 -29.9817
ltibia 24.5451
lfoot -5.30317 -13.2138
ltoes 11.764
255
root 8.13194 17.9883 5.6229 -180.184 15.5028 180.713
lowerback 13.4935 3.22606 0.21634
upperback 3.08181 4.57826 -0.967558
thorax -4.19986 2.39264 -1.91082
lowerneck -16.6696 8.10619 -3.07847
upperneck 44.3346 23.8229 0.967194
head 19.5261 10.8171 6.42831
rclavicle -9.23355e-014 1.39149e-014
rhumerus -37.4089 -15.1518 -71.4143
rradius 36.3092
rwrist 7.33221
rhand -10.2564 8.5813
rfingers 7.12502
rthumb 15.7367 -20.7989
lclavicle -9.23355e-014 1.39149e-014
lhumerus -28.3868 4.43578 81.744
lradius 39.231
lwrist -3.76492
lhand -19.4251 26.9167
lfingers 7.12502
lthumb 6.89476 56.7844
rfemur -22.9696 -0.970378 14.9167
rtibia 53.6761
rfoot -12.0208 -3.49715
rtoes 0.858797
lfemur -0.639332 -5.85219 -30.0926
ltibia 24.6377
lfoot -5.17648 -12.6528
ltoes 11.1383
256
root 8.07272 17.9901 5.69511 -180.403 16.2394 180.636
lowerback 13.4466 3.22251 0.212773
upperback 3.05862 4.56682 -0.97812
thorax -4.19841 2.3846 -1.91553
lowerneck -16.6155 8.1455 -3.10924
upperneck 44.313 23.7325 1.02923
head 19.4772 10.782 6.42441
rclavicle -1.3418e-015 3.97569e-015
rhumerus -37.0209 -14.9281 -71.5319
rradius 36.3206
rwrist 7.39302
rhand -10.4275 8.65577
rfingers 7.12502
rthumb 15.5719 -20.7373
lclavicle -1.3418e-015 3.97569e-015
lhumerus -28.9744 4.62795 81.6652
lradius 39.0576
lwrist -3.43613
lhand -19.0618 27.4192
lfingers 7.12502
lthumb 7.2455 57.2751
rfemur -22.2857 -1.21992 14.7161
rtibia 54.9612
rfoot -11.6936 -3.71541
rtoes -0.311782
lfemur -0.815303 -5.54912 -30.3696
ltibia 24.7266
lfoot -4.94064 -12.0747
ltoes 11.2417
257
root 8.01717 17.9933 5.76438 -180.595 17.1807 180.393
lowerback 13.2879 3.32351 0.00647533
upperback 3.01031 4.66009 -1.07763
thorax -4.16732 2.42933 -1.91016
lowerneck -16.6085 8.13455 -3.05319
upperneck 44.3405 23.492 1.16885
head 19.4709 10.705 6.42826
rclavicle 8.54774e-015 -7.15625e-015
rhumerus -36.6237 -14.8712 -71.6781
rradius 36.2366
rwrist 7.44919
rhand -10.4947 8.77176
rfingers 7.12502
rthumb 15.5072 -20.6264
lclavicle 8.54774e-015 -7.15625e-015
lhumerus -29.5397 4.77889 81.4964
lradius 38.8738
lwrist -3.14003
lhand -18.5702 27.2844
lfingers 7.12502
lthumb 7.72002 57.1235
rfemur -21.6994 -1.23596 14.3409
rtibia 56.1746
rfoot -11.2673 -4.00104
rtoes -0.0722362
lfemur -1.06879 -5.07999 -30.7954
ltibia 24.7716
lfoot -4.76109 -11.4378
ltoes 11.1477
258
root 7.96254 18.0031 5.82875 -180.643 18.1673 180.444
lowerback 12.9566 3.45829 0.0642401
upperback 3.03092 4.84208 -1.06846
thorax -3.95598 2.51856 -1.936
lowerneck -16.7517 8.0916 -3.08058
upperneck 44.4013 23.2705 1.2839
head 19.521 10.6036 6.46089
rclavicle -1.82882e-014 1.31198e-014
rhumerus -36.2431 -14.9018 -71.7638
rradius 36.3592
rwrist 7.32176
rhand -10.6431 8.70875
rfingers 7.12502
rthumb 15.3643 -20.7004
lclavicle -1.82882e-014 1.31198e-014
lhumerus -29.9688 4.94555 81.4159
lradius 38.7079
lwrist -2.97577
lhand -18.2424 26.972
lfingers 7.12502
lthumb 8.03642 56.7992
rfemur -21.0905 -1.34716 14.2959
rtibia 57.2741
rfoot -10.8859 -4.29185
rtoes 1.6529
lfemur -1.33268 -4.57481 -30.8842
ltibia 24.7581
lfoot -4.60211 -10.8897
ltoes 11.2684
259
root 7.90307 18.0172 5.89185 -180.666 19.1262 180.668
lowerback 12.7469 3.53714 0.322465
upperback 2.9883 4.97145 -1.00305
thorax -3.86694 2.57629 -2.01737
lowerneck -16.686 8.135 -3.02816
upperneck 44.329 23.2556 1.1743
head 19.4916 10.5891 6.38527
rclavicle -1.0625e-013 7.15625e-015
rhumerus -35.9854 -14.7725 -71.8233
rradius 36.4958
rwrist 7.09857
rhand -10.8535 8.72931
rfingers 7.12502
rthumb 15.1616 -20.6953
lclavicle -1.0625e-013 7.15625e-015
lhumerus -30.5854 5.14824 81.3456
lradius 38.6226
lwrist -2.92491
lhand -18.0704 27.2156
lfingers 7.12502
lthumb 8.2024 57.0364
rfemur -20.3754 -1.71819 14.4166
rtibia 58.2777
rfoot -10.44 -4.47201
rtoes 3.02517
lfemur -1.54682 -4.15225 -30.8158
ltibia 24.7356
lfoot -4.42709 -10.3193
ltoes 11.2734
260
root 7.83871 18.0268 5.95625 -180.724 20.1363 180.66
lowerback 12.6135 3.61154 0.305728
upperback 2.85149 5.05042 -0.957684
thorax -3.94041 2.60601 -1.96923
lowerneck -16.5475 8.17399 -2.94126
upperneck 44.3364 23.2983 1.04613
head 19.5044 10.6046 6.31417
rclavicle -6.20208e-014 4.37326e-015
rhumerus -35.7197 -14.6643 -71.8032
rradius 36.4901
rwrist 7.09446
rhand -10.9189 8.81352
rfingers 7.12502
rthumb 15.0986 -20.6158
lclavicle -6.20208e-014 4.37326e-015
lhumerus -31.3801 5.56026 81.2281
lradius 38.4948
lwrist -3.0108
lhand -17.9377 27.2802
lfingers 7.12502
lthumb 8.3305 57.0959
rfemur -19.7656 -2.14907 14.273
rtibia 59.22
rfoot -10.0085 -4.5714
rtoes 2.707
lfemur -1.87099 -3.70321 -30.9975
ltibia 24.7611
lfoot -4.2284 -9.76106
ltoes 11.1549
